<svg id="All_Logos" data-name="All Logos" xmlns="http://www.w3.org/2000/svg" viewBox="0 0 380 160"><title>logo_microsoft</title><path d="M16.23,42.89h35.3V78.2H16.23V42.89Z" fill="#f25022"/><path d="M55.14,42.89h35.3q0,17.65,0,35.31H55.14V42.89Z" fill="#80ba01"/><path d="M334.61,56.34A13.87,13.87,0,0,1,345.73,55c0,2.18,0,4.36,0,6.54a7.24,7.24,0,0,0-5.63-.51,4.44,4.44,0,0,0-2.54,3.56,47.4,47.4,0,0,0-.15,5.72H348.6c0-2.42,0-4.84,0-7.25,2.53-.73,5-1.53,7.55-2.29,0,3.18,0,6.37,0,9.56,2.51,0,5,0,7.55,0v6.2c-2.52-.1-5,0-7.58,0,0,3.57,0,7.13,0,10.7,0,2-.1,4,.13,5.93a3.83,3.83,0,0,0,1.65,3,5.68,5.68,0,0,0,5.8-.54v6.26a15,15,0,0,1-7,1.07,8.51,8.51,0,0,1-6-2.76c-1.68-2-2.12-4.74-2.15-7.29,0-5.47,0-10.94,0-16.41-3.73,0-7.45,0-11.18,0v25.76H329.8c0-8.59,0-17.17,0-25.75-1.77,0-3.54,0-5.31,0,0-2,0-4.08,0-6.12,1.76,0,3.53,0,5.29,0,.13-2.71-.28-5.5.53-8.14a10.43,10.43,0,0,1,4.31-5.88Z" fill="#777"/><path d="M171.12,56.79a4.67,4.67,0,0,1,4.23,1.5,4.37,4.37,0,0,1,.53,5,4.77,4.77,0,0,1-5.09,2.13,4.32,4.32,0,0,1-3.54-4.26,4.41,4.41,0,0,1,3.87-4.33Z" fill="#777"/><path d="M112.6,57.73h11.11c3.45,8.78,6.94,17.55,10.4,26.33.88,2.19,1.71,4.41,2.63,6.59,4.45-11,9-21.91,13.37-32.89,3.56-.06,7.13,0,10.69,0q0,22.26,0,44.52c-2.57,0-5.14,0-7.71,0,0-11,0-21.91,0-32.86,0-.49,0-1,0-1.48a5.07,5.07,0,0,0-.4.72c-4.42,11.21-8.91,22.39-13.3,33.61-1.83.06-3.66,0-5.49,0-4.55-11.21-9.05-22.45-13.58-33.67a5.51,5.51,0,0,0-.38-.67c-.09,4.79,0,9.6,0,14.4v19.93H112.6V57.73Z" fill="#777"/><path d="M192.14,70.32a20.9,20.9,0,0,1,11.34,0,9.67,9.67,0,0,1,2.18.91c0,2.43,0,4.87,0,7.3a12.14,12.14,0,0,0-8.71-2.68,9,9,0,0,0-6.34,3.53,12.26,12.26,0,0,0-2,8.84,9.56,9.56,0,0,0,3.09,6.34,9.66,9.66,0,0,0,7.14,2.13,14.58,14.58,0,0,0,6.85-2.81c0,2.3,0,4.61,0,6.91A18.53,18.53,0,0,1,195.21,103a15.49,15.49,0,0,1-10-4.15,15.94,15.94,0,0,1-4.62-10.68,19.45,19.45,0,0,1,3-11.85,15.4,15.4,0,0,1,8.48-6Z" fill="#777"/><path d="M275.54,69.83a20.18,20.18,0,0,1,10.57,1.11c0,2.34,0,4.67,0,7a13.45,13.45,0,0,0-8-2.36,4.08,4.08,0,0,0-3.65,2,3.3,3.3,0,0,0,1.11,3.91c2.16,1.45,4.74,2.06,7,3.36A10,10,0,0,1,286.92,89a9.3,9.3,0,0,1-2,10.74c-2.82,2.64-6.88,3.37-10.62,3.23a22.51,22.51,0,0,1-7.76-1.78c0-2.46,0-4.92,0-7.38a16.65,16.65,0,0,0,6.93,3,9,9,0,0,0,5.26-.48,3.06,3.06,0,0,0,.92-4.34,9.24,9.24,0,0,0-3.34-2.19,31.76,31.76,0,0,1-6.59-3.37,7.87,7.87,0,0,1-2.85-4.33A9.73,9.73,0,0,1,268,74.5a11.4,11.4,0,0,1,7.59-4.67Z" fill="#777"/><path d="M222.73,70.84a8.62,8.62,0,0,1,7.09-.6c0,2.55,0,5.09,0,7.64a8.15,8.15,0,0,0-5.16-1.21,6.33,6.33,0,0,0-4.78,3.82A14.06,14.06,0,0,0,218.79,87v15.27h-7.53c0-10.64,0-21.27,0-31.9,2.52,0,5,0,7.54,0,0,1.83,0,3.65,0,5.48a9.8,9.8,0,0,1,3.95-5Z" fill="#777"/><path d="M167.94,70.36c2.53,0,5.07,0,7.6,0,0,10.63,0,21.26,0,31.9H168q0-16,0-31.91Z" fill="#777"/><path d="M261.47,77.8a13.51,13.51,0,0,0-6.67-6.74,20.21,20.21,0,0,0-10.93-1.29,15.25,15.25,0,0,0-10,5.37,16.93,16.93,0,0,0-3.52,9.75,18.36,18.36,0,0,0,2.79,11.92,14.48,14.48,0,0,0,8.82,5.75,21.89,21.89,0,0,0,8.94,0,14.81,14.81,0,0,0,8.77-5.41A17,17,0,0,0,263,87.87,21,21,0,0,0,261.47,77.8Zm-7.38,14.65a6.93,6.93,0,0,1-3.75,3.68,10.25,10.25,0,0,1-6.22.28,7.65,7.65,0,0,1-4.79-4,14.79,14.79,0,0,1-1.16-8,10.17,10.17,0,0,1,3-6.66,8,8,0,0,1,5-2A8.21,8.21,0,0,1,252.53,78a10.27,10.27,0,0,1,2.64,6.65A16.7,16.7,0,0,1,254.09,92.45Z" fill="#777"/><path d="M322.62,78.72a13.61,13.61,0,0,0-6.56-7.42,19.74,19.74,0,0,0-11.33-1.54,15.8,15.8,0,0,0-8.44,3.62,15.62,15.62,0,0,0-5,9.8,21,21,0,0,0,1.2,11.09,14.14,14.14,0,0,0,7.75,7.52,20.52,20.52,0,0,0,10.76.91,14.86,14.86,0,0,0,9.38-5.49,17.48,17.48,0,0,0,3.46-10.87A20.38,20.38,0,0,0,322.62,78.72Zm-6.89,10.82a9.94,9.94,0,0,1-2,4.69,7.18,7.18,0,0,1-4.46,2.4,10.08,10.08,0,0,1-5.46-.6,7.7,7.7,0,0,1-4-4.21,15.09,15.09,0,0,1-.91-6.95,11.06,11.06,0,0,1,2.32-6.36,7.82,7.82,0,0,1,5.57-2.67,8.41,8.41,0,0,1,6.12,1.8,8.77,8.77,0,0,1,2.76,5.08A19.29,19.29,0,0,1,315.73,89.54Z" fill="#777"/><path d="M16.23,81.8h35.3v35.31H16.23V81.8Z" fill="#02a4ef"/><path d="M55.14,81.8h35.3v35.31H55.14V81.8Z" fill="#ffb902"/></svg>